<svg width="70" height="70" viewBox="0 0 70 70" fill="none" xmlns="http://www.w3.org/2000/svg">
<path d="M70 0H0V70H70V0Z" fill="#6F7C7F"/>
<path d="M54.318 26.254C54.318 24.216 53.8083 22.8573 53.4685 21.4986C52.9588 20.1399 52.2791 19.1209 51.2597 18.1019C50.2403 17.0829 49.051 16.4035 47.8617 15.894C46.6723 15.3845 45.3131 15.0448 43.1044 15.0448C41.0655 15.0448 40.3859 14.875 35.1189 14.875C29.8519 14.875 29.1723 14.875 27.1335 15.0448C25.0947 15.2147 23.7354 15.5543 22.3762 15.894C21.1869 16.4035 19.9976 17.0829 18.9782 18.1019C17.9587 19.1209 17.2791 20.3098 16.7694 21.4986C16.2597 22.6875 15.9199 24.216 15.9199 26.254C15.9199 28.2921 15.75 28.9714 15.75 34.2363C15.75 39.5012 15.75 40.1806 15.9199 42.2186C16.0898 44.2566 16.4296 45.6153 16.7694 46.974C17.2791 48.3327 17.9587 49.3517 18.9782 50.3707C19.9976 51.3898 21.1869 52.0691 22.3762 52.5786C23.5655 53.0881 24.9248 53.4278 27.1335 53.4278C29.1723 53.5976 29.8519 53.5976 35.1189 53.5976C40.3859 53.5976 41.0655 53.5976 43.1044 53.4278C45.1432 53.258 46.5024 53.0881 47.8617 52.5786C49.2209 52.0691 50.2403 51.3898 51.2597 50.3707C52.2791 49.3517 52.9588 48.1629 53.4685 46.974C53.9782 45.7852 54.318 44.4265 54.318 42.2186C54.4879 40.0107 54.4879 39.5012 54.4879 34.2363C54.4879 28.9714 54.4879 28.2921 54.318 26.254ZM35.1189 44.0868C29.682 44.0868 25.2646 39.6711 25.2646 34.2363C25.2646 28.8016 29.682 24.3858 35.1189 24.3858C40.5558 24.3858 44.9733 28.8016 44.9733 34.2363C45.1432 39.6711 40.5558 44.0868 35.1189 44.0868ZM45.9927 26.0842C44.4636 26.0842 43.2743 24.8953 43.2743 23.3668C43.2743 21.8383 44.4636 20.6494 45.9927 20.6494C47.5219 20.6494 48.7112 21.8383 48.7112 23.3668C48.5413 24.8953 47.352 26.0842 45.9927 26.0842Z" fill="#F6F6F6"/>
<path d="M41.0656 34.2365C41.0656 37.6332 38.3471 40.1807 35.119 40.1807C31.8908 40.1807 29.1724 37.4634 29.1724 34.2365C29.1724 31.0096 31.8908 28.2922 35.119 28.2922C38.517 28.1224 41.0656 30.8398 41.0656 34.2365Z" fill="#F6F6F6"/>
</svg>
