<svg width="70" height="70" viewBox="0 0 70 70" fill="none" xmlns="http://www.w3.org/2000/svg">
<path d="M70 0H0V70H70V0Z" fill="#6F7C7F"/>
<path d="M41.5497 26.1209H52.5934V22.894H41.5497V26.1209ZM44.0983 33.0842C43.4187 33.7635 42.909 34.7825 42.7391 35.9714H51.2342C51.0643 34.6127 50.7245 33.7635 49.875 33.0842C49.0255 32.4048 48.176 32.0652 46.9867 32.0652C45.7973 31.8953 44.9478 32.4048 44.0983 33.0842ZM51.574 28.8383C52.9332 29.3478 53.9527 30.3668 54.8022 31.5557C55.6517 32.7445 56.1614 33.9334 56.3313 35.4619C56.5012 36.3111 56.5012 37.4999 56.5012 39.1983H42.7391C42.7391 41.0665 43.4187 42.4252 44.7779 43.1045C45.4575 43.614 46.4769 43.7839 47.4963 43.7839C48.6857 43.7839 49.5352 43.4442 50.2148 42.9347C50.5546 42.595 50.8944 42.2553 51.2342 41.576H56.3313C56.1614 42.7648 55.6517 43.7839 54.4624 44.9727C52.7633 46.8409 50.3847 47.6901 47.3265 47.6901C44.7779 47.6901 42.5692 46.8409 40.7002 45.3124C38.8313 43.7839 37.8119 41.2363 37.8119 37.8396C37.8119 34.6127 38.6614 32.0652 40.3604 30.3668C42.0595 28.6684 44.4381 27.8193 47.1565 27.8193C48.8556 27.9891 50.2148 28.1589 51.574 28.8383ZM20.142 35.9714V42.7648H26.4284C27.6177 42.7648 28.4672 42.595 28.9769 42.2553C30.1663 41.7458 30.676 40.7268 30.676 39.0284C30.676 37.6698 30.1663 36.8206 28.9769 36.3111C28.2973 35.9714 27.4478 35.9714 26.4284 35.8016H20.142V35.9714ZM20.142 26.2907V31.8953H26.4284C27.6177 31.8953 28.4672 31.7255 29.1469 31.216C29.8265 30.8763 30.1663 30.0271 30.1663 29.0081C30.1663 27.8193 29.6565 26.9701 28.807 26.6304C27.9575 26.2907 26.9381 26.2907 25.7488 26.2907H20.142V26.2907ZM34.074 24.5924C34.9235 25.6114 35.2633 26.9701 35.2633 28.4986C35.2633 30.0271 34.9235 31.216 34.074 32.235C33.5643 32.7445 33.0546 33.254 32.0352 33.5937C33.3944 34.1032 34.4138 34.7825 34.9235 35.8016C35.6032 36.8206 35.943 38.0094 35.943 39.5379C35.943 41.0665 35.6031 42.4252 34.7536 43.614C34.2439 44.4632 33.7342 45.1425 32.8847 45.652C32.0352 46.3314 31.0158 46.6711 29.9964 46.8409C28.807 47.0107 27.6177 47.1806 26.4284 47.1806H14.875V21.875H27.2779C30.5061 21.875 32.7148 22.7242 34.074 24.5924Z" fill="#F6F6F6"/>
</svg>
