<svg width="70" height="70" viewBox="0 0 70 70" fill="none" xmlns="http://www.w3.org/2000/svg">
<path d="M70 0H0V70H70V0Z" fill="#6F7C7F"/>
<path d="M53.3495 50.9835H45.534V39.6045C45.534 36.5475 44.3447 34.5094 41.6262 34.5094C39.5874 34.5094 38.3981 35.8681 37.8884 37.2268C37.7185 37.7363 37.7184 38.4157 37.7184 39.095V50.9835H29.9029C29.9029 50.9835 30.0728 30.773 29.9029 28.9048H37.7184V32.3016C38.2282 30.773 40.6068 28.5652 44.6845 28.5652C49.6117 28.5652 53.5194 31.7921 53.5194 38.5855V50.9835H53.3495ZM21.7476 26.1875C19.199 26.1875 17.5 24.4891 17.5 22.2812C17.5 20.0734 19.199 18.375 21.7476 18.375C24.2961 18.375 25.8253 20.0734 25.9952 22.2812C25.9952 24.4891 24.2961 26.1875 21.7476 26.1875ZM18.5194 28.9048H25.4854V50.9835H18.5194V28.9048V28.9048Z" fill="#F6F6F6"/>
</svg>
