<svg width="24" height="36" viewBox="0 0 24 36" fill="none" xmlns="http://www.w3.org/2000/svg">
<path d="M15.0993 17.2698V17.3651H6.83444L5.18146 22.7619H0L8.0106 0H13.8914L18.8742 13.8889L15.0993 17.2698ZM12.302 8.06349C12.196 7.7037 12.0583 7.24868 11.8887 6.69841C11.7192 6.14815 11.5497 5.5873 11.3801 5.01587C11.2106 4.44444 11.0728 3.94709 10.9669 3.52381C10.8609 3.94709 10.7126 4.47619 10.5219 5.11111C10.3523 5.72487 10.1828 6.31746 10.0132 6.88889C9.8649 7.43915 9.74834 7.83069 9.66358 8.06349L8.04238 13.3333H13.955L12.302 8.06349Z" fill="#6F7C7F"/>
<path d="M15.7351 36H10.9987V13.3333H24V17.2698H15.7351V23.1111H23.4278V27.0476H15.7351V36Z" fill="#6F7C7F"/>
</svg>
